<svg width="24" height="24" viewBox="0 0 24 24" fill="none" xmlns="http://www.w3.org/2000/svg">
<path d="M24 24H0V13.5673H2.18182V21.9135H21.8182V13.5673H24V24Z" fill="#4678B2"/>
<path d="M4.79223 11.1607C4.58764 10.9651 4.47273 10.6998 4.47273 10.4231C4.47273 10.1464 4.58764 9.88096 4.79223 9.68531C4.99681 9.48966 5.27429 9.37985 5.56362 9.37985C5.85295 9.37985 6.13042 9.48966 6.33501 9.68531L11.0189 14.1646L11.0189 1.47621C11.0189 1.19937 11.1339 0.933821 11.3386 0.738062C11.5433 0.542302 11.821 0.432337 12.1104 0.432337C12.3999 0.432337 12.6775 0.542393 12.8822 0.738152C13.0869 0.933911 13.202 1.19937 13.202 1.47621L13.2011 14.1802L17.9066 9.68026C18.1112 9.48461 18.3887 9.37463 18.678 9.37463C18.9673 9.37463 19.2448 9.48461 19.4494 9.68026C19.654 9.87591 19.769 10.1413 19.769 10.418C19.769 10.6947 19.654 10.96 19.4494 11.1557L12.8926 17.4261C12.688 17.6218 12.4106 17.7317 12.1213 17.7317C11.8319 17.7317 11.5544 17.6218 11.3498 17.4261L4.79223 11.1607Z" fill="#4678B2"/>
</svg>
