<svg width="26" height="22" viewBox="0 0 26 22" fill="none" xmlns="http://www.w3.org/2000/svg">
<g opacity="0.7">
<path fill-rule="evenodd" clip-rule="evenodd" d="M25.99 18.0298C25.99 20.2224 24.3257 21.9892 22.2828 21.9892H3.71706C1.66416 21.9892 0.0098877 20.2118 0.0098877 18.0298V3.96986C0.0098877 1.77731 1.67413 0.010498 3.71706 0.010498H22.2728C24.3257 0.010498 25.98 1.78795 25.98 3.96986V18.0298H25.99Z" fill="url(#paint0_linear_1306_24808)"/>
<path d="M25.99 6.92888V6.418H21.2265V0H20.7482V6.418H16.8915C16.3833 4.69376 14.9582 3.42719 13.2242 3.2569V0H12.7459V3.22497C10.8724 3.2569 9.29782 4.59797 8.75968 6.42864H5.27175V0.0106457H4.7934V6.42864H0V6.93953H4.7934V14.1345H0V14.6454H4.7934V22H5.27175V14.6454H8.66999C9.09851 16.6463 10.7627 18.1471 12.7558 18.1896V22H13.2342V18.1471C15.0878 17.9555 16.5926 16.5293 17.0011 14.6454H20.7581V22H21.2365V14.6454H26V14.1345H23.1598V6.93953H25.99V6.92888ZM8.61019 14.1239H5.27175V6.92888H8.64009C8.59026 7.20561 8.56037 7.49299 8.56037 7.78036C8.56037 8.8447 8.91912 9.87712 9.56688 10.6967C8.91912 11.5269 8.56037 12.5486 8.56037 13.613C8.56037 13.7939 8.59026 13.9642 8.61019 14.1239ZM12.8356 17.6788C10.7428 17.6788 9.03871 15.8587 9.03871 13.6236C9.03871 12.6125 9.39747 11.6333 10.0552 10.8776L10.2047 10.7073L10.0552 10.537C9.39747 9.78133 9.03871 8.80213 9.03871 7.791C9.03871 5.55588 10.7428 3.73585 12.8356 3.73585C14.9283 3.73585 16.6324 5.55588 16.6324 7.791C16.6324 8.80213 16.2737 9.78133 15.6159 10.537L15.4665 10.7073L15.6159 10.8776C16.2737 11.6333 16.6324 12.6125 16.6324 13.6236C16.6424 15.8587 14.9383 17.6788 12.8356 17.6788ZM22.6815 14.1239H17.0709C17.0908 13.9536 17.1207 13.7939 17.1207 13.613C17.1207 12.5486 16.762 11.5269 16.1142 10.6967C16.762 9.86648 17.1207 8.8447 17.1207 7.78036C17.1207 7.49299 17.0908 7.20561 17.041 6.92888H22.6815V14.1239V14.1239Z" fill="url(#paint1_linear_1306_24808)"/>
</g>
<defs>
<linearGradient id="paint0_linear_1306_24808" x1="13.0004" y1="-5.91449" x2="13.0004" y2="49.5604" gradientUnits="userSpaceOnUse">
<stop stop-color="#F0C84D"/>
<stop offset="0.0969" stop-color="#B67B2E"/>
<stop offset="0.1888" stop-color="#F3D97F"/>
<stop offset="0.4201" stop-color="#EAAA4E"/>
<stop offset="0.5538" stop-color="#965F1D"/>
<stop offset="0.6562" stop-color="#EAAA4E"/>
<stop offset="0.7903" stop-color="#FFFF9E"/>
<stop offset="0.8775" stop-color="#F9EA7F"/>
<stop offset="1" stop-color="#F0C84D"/>
</linearGradient>
<linearGradient id="paint1_linear_1306_24808" x1="13.0005" y1="-19.3603" x2="13.0005" y2="50.0984" gradientUnits="userSpaceOnUse">
<stop stop-color="#F0C84D"/>
<stop offset="0.0969" stop-color="#B67B2E"/>
<stop offset="0.1888" stop-color="#F3D97F"/>
<stop offset="0.4201" stop-color="#EAAA4E"/>
<stop offset="0.5538" stop-color="#965F1D"/>
<stop offset="0.6562" stop-color="#EAAA4E"/>
<stop offset="0.7903" stop-color="#FFFF9E"/>
<stop offset="0.8775" stop-color="#F9EA7F"/>
<stop offset="1" stop-color="#F0C84D"/>
</linearGradient>
</defs>
</svg>
