<svg width="24" height="24" viewBox="0 0 24 24" fill="none" xmlns="http://www.w3.org/2000/svg">
<path d="M2 24C1.46957 24 0.960859 23.7893 0.585786 23.4142C0.210714 23.0391 0 22.5304 0 22V7.217C0 6.68657 0.210714 6.17786 0.585786 5.80279C0.960859 5.42771 1.46957 5.217 2 5.217H4.364V1C4.364 0.734784 4.46936 0.48043 4.65689 0.292893C4.84443 0.105357 5.09878 0 5.364 0L5.546 0C5.81122 0 6.06557 0.105357 6.25311 0.292893C6.44064 0.48043 6.546 0.734784 6.546 1V5.217H17.456V1C17.456 0.734784 17.5614 0.48043 17.7489 0.292893C17.9364 0.105357 18.1908 0 18.456 0L18.638 0C18.9032 0 19.1576 0.105357 19.3451 0.292893C19.5326 0.48043 19.638 0.734784 19.638 1V5.217H22C22.5304 5.217 23.0391 5.42771 23.4142 5.80279C23.7893 6.17786 24 6.68657 24 7.217V22C24 22.5304 23.7893 23.0391 23.4142 23.4142C23.0391 23.7893 22.5304 24 22 24H2ZM2.182 8.3V20.913C2.182 21.1782 2.28736 21.4326 2.47489 21.6201C2.66243 21.8076 2.91678 21.913 3.182 21.913H20.819C21.0842 21.913 21.3386 21.8076 21.5261 21.6201C21.7136 21.4326 21.819 21.1782 21.819 20.913V8.3C21.819 8.03478 21.7136 7.78043 21.5261 7.59289C21.3386 7.40536 21.0842 7.3 20.819 7.3H3.182C2.91678 7.3 2.66243 7.40536 2.47489 7.59289C2.28736 7.78043 2.182 8.03478 2.182 8.3ZM17.365 19.826C17.0998 19.826 16.8454 19.7206 16.6579 19.5331C16.4704 19.3456 16.365 19.0912 16.365 18.826V16.653C16.365 16.3878 16.4704 16.1334 16.6579 15.9459C16.8454 15.7584 17.0998 15.653 17.365 15.653H17.547C17.8122 15.653 18.0666 15.7584 18.2541 15.9459C18.4416 16.1334 18.547 16.3878 18.547 16.653V18.827C18.547 19.0922 18.4416 19.3466 18.2541 19.5341C18.0666 19.7216 17.8122 19.827 17.547 19.827L17.365 19.826ZM11.91 19.826C11.6448 19.826 11.3904 19.7206 11.2029 19.5331C11.0154 19.3456 10.91 19.0912 10.91 18.826V16.653C10.91 16.3878 11.0154 16.1334 11.2029 15.9459C11.3904 15.7584 11.6448 15.653 11.91 15.653H12.092C12.3572 15.653 12.6116 15.7584 12.7991 15.9459C12.9866 16.1334 13.092 16.3878 13.092 16.653V18.827C13.092 19.0922 12.9866 19.3466 12.7991 19.5341C12.6116 19.7216 12.3572 19.827 12.092 19.827L11.91 19.826ZM6.455 19.826C6.18978 19.826 5.93543 19.7206 5.74789 19.5331C5.56036 19.3456 5.455 19.0912 5.455 18.826V16.653C5.455 16.3878 5.56036 16.1334 5.74789 15.9459C5.93543 15.7584 6.18978 15.653 6.455 15.653H6.637C6.90222 15.653 7.15657 15.7584 7.34411 15.9459C7.53164 16.1334 7.637 16.3878 7.637 16.653V18.827C7.637 19.0922 7.53164 19.3466 7.34411 19.5341C7.15657 19.7216 6.90222 19.827 6.637 19.827L6.455 19.826ZM17.365 13.566C17.0998 13.566 16.8454 13.4606 16.6579 13.2731C16.4704 13.0856 16.365 12.8312 16.365 12.566V10.391C16.365 10.1258 16.4704 9.87143 16.6579 9.68389C16.8454 9.49636 17.0998 9.391 17.365 9.391H17.547C17.8122 9.391 18.0666 9.49636 18.2541 9.68389C18.4416 9.87143 18.547 10.1258 18.547 10.391V12.565C18.547 12.8302 18.4416 13.0846 18.2541 13.2721C18.0666 13.4596 17.8122 13.565 17.547 13.565L17.365 13.566ZM11.91 13.566C11.6448 13.566 11.3904 13.4606 11.2029 13.2731C11.0154 13.0856 10.91 12.8312 10.91 12.566V10.391C10.91 10.1258 11.0154 9.87143 11.2029 9.68389C11.3904 9.49636 11.6448 9.391 11.91 9.391H12.092C12.3572 9.391 12.6116 9.49636 12.7991 9.68389C12.9866 9.87143 13.092 10.1258 13.092 10.391V12.565C13.092 12.8302 12.9866 13.0846 12.7991 13.2721C12.6116 13.4596 12.3572 13.565 12.092 13.565L11.91 13.566ZM6.455 13.566C6.18978 13.566 5.93543 13.4606 5.74789 13.2731C5.56036 13.0856 5.455 12.8312 5.455 12.566V10.391C5.455 10.1258 5.56036 9.87143 5.74789 9.68389C5.93543 9.49636 6.18978 9.391 6.455 9.391H6.637C6.90222 9.391 7.15657 9.49636 7.34411 9.68389C7.53164 9.87143 7.637 10.1258 7.637 10.391V12.565C7.637 12.8302 7.53164 13.0846 7.34411 13.2721C7.15657 13.4596 6.90222 13.565 6.637 13.565L6.455 13.566Z" fill="#4678B2"/>
</svg>
