<svg width="47" height="40" viewBox="0 0 47 40" fill="none" xmlns="http://www.w3.org/2000/svg">
<path d="M34.5 23.0046H12.5V13.0046H14.5V21.0046H32.5V13.0046H34.5V23.0046Z" fill="#4678B2"/>
<path d="M16.8933 10.6978C16.7057 10.5103 16.6004 10.256 16.6004 9.99082C16.6004 9.7256 16.7057 9.47116 16.8933 9.28362C17.0808 9.09609 17.3352 8.99084 17.6004 8.99084C17.8656 8.99084 18.12 9.09609 18.3075 9.28362L22.6011 13.5772V1.41499C22.6011 1.14963 22.7065 0.895093 22.8941 0.707452C23.0818 0.519811 23.3363 0.414407 23.6016 0.414407C23.867 0.414407 24.1215 0.519898 24.3091 0.707538C24.4967 0.895179 24.6022 1.14963 24.6022 1.41499L24.6015 13.5921L28.9148 9.27879C29.1023 9.09125 29.3567 8.98583 29.6219 8.98583C29.8871 8.98583 30.1415 9.09125 30.329 9.27879C30.5165 9.46633 30.622 9.72068 30.622 9.9859C30.622 10.2511 30.5165 10.5055 30.329 10.693L24.3186 16.7034C24.1311 16.8909 23.8768 16.9963 23.6116 16.9963C23.3464 16.9963 23.0919 16.8909 22.9044 16.7034L16.8933 10.6978Z" fill="#4678B2"/>
<path d="M0.771484 37.0095V29.8513H3.2373C3.79395 29.8513 4.21875 29.8855 4.51172 29.9539C4.92188 30.0483 5.27181 30.2192 5.56152 30.4666C5.93913 30.7856 6.2207 31.1941 6.40625 31.6921C6.59505 32.1869 6.68945 32.7533 6.68945 33.3914C6.68945 33.935 6.62598 34.4167 6.49902 34.8367C6.37207 35.2566 6.20931 35.6049 6.01074 35.8816C5.81217 36.155 5.59408 36.3715 5.35645 36.531C5.12207 36.6873 4.83724 36.8061 4.50195 36.8875C4.16992 36.9688 3.78743 37.0095 3.35449 37.0095H0.771484ZM1.71875 36.1648H3.24707C3.71908 36.1648 4.08854 36.1208 4.35547 36.033C4.62565 35.9451 4.84049 35.8214 5 35.6619C5.22461 35.4373 5.39876 35.1361 5.52246 34.7585C5.64941 34.3777 5.71289 33.9171 5.71289 33.3767C5.71289 32.628 5.58919 32.0535 5.3418 31.6531C5.09766 31.2494 4.7998 30.9792 4.44824 30.8425C4.19434 30.7449 3.78581 30.696 3.22266 30.696H1.71875V36.1648ZM11.4355 35.3396L12.3438 35.4519C12.2005 35.9825 11.9352 36.3943 11.5479 36.6873C11.1605 36.9802 10.6657 37.1267 10.0635 37.1267C9.30501 37.1267 8.7028 36.894 8.25684 36.4285C7.81413 35.9597 7.59277 35.3038 7.59277 34.4607C7.59277 33.5883 7.81738 32.9112 8.2666 32.4294C8.71582 31.9477 9.2985 31.7068 10.0146 31.7068C10.708 31.7068 11.2744 31.9428 11.7139 32.4148C12.1533 32.8868 12.373 33.5509 12.373 34.407C12.373 34.4591 12.3714 34.5372 12.3682 34.6414H8.50098C8.53353 35.211 8.69466 35.6472 8.98438 35.95C9.27409 36.2527 9.63542 36.4041 10.0684 36.4041C10.3906 36.4041 10.6657 36.3194 10.8936 36.1501C11.1214 35.9809 11.3021 35.7107 11.4355 35.3396ZM8.5498 33.9187H11.4453C11.4062 33.4825 11.2956 33.1554 11.1133 32.9373C10.8333 32.5987 10.4704 32.4294 10.0244 32.4294C9.62077 32.4294 9.2806 32.5645 9.00391 32.8347C8.73047 33.1049 8.5791 33.4662 8.5498 33.9187ZM13.1006 35.4617L13.9697 35.325C14.0186 35.6733 14.1536 35.9402 14.375 36.1257C14.5996 36.3113 14.9121 36.4041 15.3125 36.4041C15.7161 36.4041 16.0156 36.3227 16.2109 36.1599C16.4062 35.9939 16.5039 35.8002 16.5039 35.5789C16.5039 35.3803 16.4176 35.224 16.2451 35.1101C16.1247 35.032 15.8252 34.9327 15.3467 34.8123C14.7021 34.6495 14.2546 34.5095 14.0039 34.3923C13.7565 34.2719 13.5677 34.1075 13.4375 33.8992C13.3105 33.6876 13.2471 33.4548 13.2471 33.2009C13.2471 32.9698 13.2992 32.7566 13.4033 32.5613C13.5107 32.3627 13.6556 32.1983 13.8379 32.0681C13.9746 31.9672 14.1602 31.8826 14.3945 31.8142C14.6322 31.7426 14.8861 31.7068 15.1562 31.7068C15.5632 31.7068 15.9196 31.7654 16.2256 31.8826C16.5348 31.9998 16.7627 32.1593 16.9092 32.3611C17.0557 32.5597 17.1566 32.8266 17.2119 33.1619L16.3525 33.2791C16.3135 33.0121 16.1995 32.8038 16.0107 32.6541C15.8252 32.5043 15.5615 32.4294 15.2197 32.4294C14.8161 32.4294 14.528 32.4962 14.3555 32.6296C14.1829 32.7631 14.0967 32.9194 14.0967 33.0984C14.0967 33.2123 14.1325 33.3149 14.2041 33.406C14.2757 33.5004 14.388 33.5785 14.541 33.6404C14.6289 33.6729 14.8877 33.7478 15.3174 33.865C15.9391 34.031 16.3721 34.1677 16.6162 34.2751C16.8636 34.3793 17.0573 34.5323 17.1973 34.7341C17.3372 34.936 17.4072 35.1866 17.4072 35.4861C17.4072 35.7791 17.321 36.0557 17.1484 36.3162C16.9792 36.5733 16.7334 36.7735 16.4111 36.9167C16.0889 37.0567 15.7243 37.1267 15.3174 37.1267C14.6436 37.1267 14.1292 36.9867 13.7744 36.7068C13.4229 36.4268 13.1982 36.0118 13.1006 35.4617ZM21.8359 35.1101L22.7002 35.2224C22.6058 35.8181 22.3633 36.2852 21.9727 36.6238C21.5853 36.9591 21.1084 37.1267 20.542 37.1267C19.8324 37.1267 19.2611 36.8956 18.8281 36.4333C18.3984 35.9679 18.1836 35.3022 18.1836 34.4363C18.1836 33.8764 18.2764 33.3865 18.4619 32.9666C18.6475 32.5466 18.929 32.2325 19.3066 32.0242C19.6875 31.8126 20.1009 31.7068 20.5469 31.7068C21.11 31.7068 21.5706 31.85 21.9287 32.1365C22.2868 32.4197 22.5163 32.8233 22.6172 33.3474L21.7627 33.4792C21.6813 33.1309 21.5365 32.8689 21.3281 32.6931C21.123 32.5173 20.874 32.4294 20.5811 32.4294C20.1383 32.4294 19.7786 32.5889 19.502 32.908C19.2253 33.2237 19.0869 33.725 19.0869 34.4119C19.0869 35.1085 19.2204 35.6147 19.4873 35.9304C19.7542 36.2462 20.1025 36.4041 20.5322 36.4041C20.8773 36.4041 21.1654 36.2983 21.3965 36.0867C21.6276 35.8751 21.7741 35.5496 21.8359 35.1101ZM26.8359 36.3699C26.5104 36.6466 26.1963 36.8419 25.8936 36.9558C25.5941 37.0697 25.2718 37.1267 24.9268 37.1267C24.3571 37.1267 23.9193 36.9884 23.6133 36.7117C23.3073 36.4317 23.1543 36.0753 23.1543 35.6423C23.1543 35.3884 23.2113 35.1573 23.3252 34.949C23.4424 34.7374 23.5938 34.5681 23.7793 34.4412C23.9681 34.3142 24.1797 34.2182 24.4141 34.1531C24.5866 34.1075 24.847 34.0636 25.1953 34.0212C25.9049 33.9366 26.4274 33.8357 26.7627 33.7185C26.766 33.5981 26.7676 33.5216 26.7676 33.489C26.7676 33.1309 26.6846 32.8787 26.5186 32.7322C26.2939 32.5336 25.9603 32.4343 25.5176 32.4343C25.1042 32.4343 24.7982 32.5076 24.5996 32.6541C24.4043 32.7973 24.2594 33.0528 24.165 33.4207L23.3057 33.3035C23.3838 32.9356 23.5124 32.6394 23.6914 32.4148C23.8704 32.1869 24.1292 32.0128 24.4678 31.8923C24.8063 31.7686 25.1986 31.7068 25.6445 31.7068C26.0872 31.7068 26.4469 31.7589 26.7236 31.863C27.0003 31.9672 27.2038 32.099 27.334 32.2585C27.4642 32.4148 27.5553 32.6134 27.6074 32.8542C27.6367 33.004 27.6514 33.2742 27.6514 33.6648V34.8367C27.6514 35.6537 27.6693 36.1713 27.7051 36.3894C27.7441 36.6042 27.819 36.811 27.9297 37.0095H27.0117C26.9206 36.8272 26.862 36.614 26.8359 36.3699ZM26.7627 34.407C26.4437 34.5372 25.9652 34.6479 25.3271 34.739C24.9658 34.7911 24.7103 34.8497 24.5605 34.9148C24.4108 34.9799 24.2952 35.0759 24.2139 35.2029C24.1325 35.3266 24.0918 35.4649 24.0918 35.6179C24.0918 35.8523 24.1797 36.0476 24.3555 36.2039C24.5345 36.3601 24.7949 36.4382 25.1367 36.4382C25.4753 36.4382 25.7764 36.365 26.04 36.2185C26.3037 36.0688 26.4974 35.8653 26.6211 35.6082C26.7155 35.4096 26.7627 35.1166 26.7627 34.7292V34.407ZM29.0088 37.0095V31.824H29.7998V32.6101C30.0016 32.2423 30.1872 31.9998 30.3564 31.8826C30.529 31.7654 30.7178 31.7068 30.9229 31.7068C31.2191 31.7068 31.5202 31.8012 31.8262 31.99L31.5234 32.8054C31.3086 32.6785 31.0938 32.615 30.8789 32.615C30.6868 32.615 30.5143 32.6736 30.3613 32.7908C30.2083 32.9047 30.0993 33.0642 30.0342 33.2693C29.9365 33.5818 29.8877 33.9236 29.8877 34.2947V37.0095H29.0088ZM32.1875 37.4392L33.042 37.5662C33.0778 37.8298 33.1771 38.0219 33.3398 38.1423C33.5579 38.3051 33.8558 38.3865 34.2334 38.3865C34.6403 38.3865 34.9544 38.3051 35.1758 38.1423C35.3971 37.9796 35.5469 37.7517 35.625 37.4587C35.6706 37.2797 35.6917 36.9037 35.6885 36.3308C35.3044 36.7833 34.8258 37.0095 34.2529 37.0095C33.54 37.0095 32.9883 36.7524 32.5977 36.238C32.207 35.7237 32.0117 35.1069 32.0117 34.3875C32.0117 33.8927 32.1012 33.4369 32.2803 33.0203C32.4593 32.6003 32.7181 32.2764 33.0566 32.0486C33.3984 31.8207 33.7988 31.7068 34.2578 31.7068C34.8698 31.7068 35.3743 31.9542 35.7715 32.449V31.824H36.582V36.3064C36.582 37.1137 36.499 37.685 36.333 38.0203C36.1702 38.3588 35.9098 38.6257 35.5518 38.821C35.1969 39.0164 34.7591 39.114 34.2383 39.114C33.6198 39.114 33.1201 38.974 32.7393 38.6941C32.3584 38.4174 32.1745 37.9991 32.1875 37.4392ZM32.915 34.324C32.915 35.0043 33.0501 35.5007 33.3203 35.8132C33.5905 36.1257 33.929 36.282 34.3359 36.282C34.7396 36.282 35.0781 36.1274 35.3516 35.8181C35.625 35.5056 35.7617 35.0173 35.7617 34.3533C35.7617 33.7185 35.6201 33.24 35.3369 32.9177C35.057 32.5955 34.7184 32.4343 34.3213 32.4343C33.9307 32.4343 33.5986 32.5938 33.3252 32.9128C33.0518 33.2286 32.915 33.699 32.915 34.324ZM41.2988 36.3699C40.9733 36.6466 40.6592 36.8419 40.3564 36.9558C40.057 37.0697 39.7347 37.1267 39.3896 37.1267C38.82 37.1267 38.3822 36.9884 38.0762 36.7117C37.7702 36.4317 37.6172 36.0753 37.6172 35.6423C37.6172 35.3884 37.6742 35.1573 37.7881 34.949C37.9053 34.7374 38.0566 34.5681 38.2422 34.4412C38.431 34.3142 38.6426 34.2182 38.877 34.1531C39.0495 34.1075 39.3099 34.0636 39.6582 34.0212C40.3678 33.9366 40.8903 33.8357 41.2256 33.7185C41.2288 33.5981 41.2305 33.5216 41.2305 33.489C41.2305 33.1309 41.1475 32.8787 40.9814 32.7322C40.7568 32.5336 40.4232 32.4343 39.9805 32.4343C39.5671 32.4343 39.2611 32.5076 39.0625 32.6541C38.8672 32.7973 38.7223 33.0528 38.6279 33.4207L37.7686 33.3035C37.8467 32.9356 37.9753 32.6394 38.1543 32.4148C38.3333 32.1869 38.5921 32.0128 38.9307 31.8923C39.2692 31.7686 39.6615 31.7068 40.1074 31.7068C40.5501 31.7068 40.9098 31.7589 41.1865 31.863C41.4632 31.9672 41.6667 32.099 41.7969 32.2585C41.9271 32.4148 42.0182 32.6134 42.0703 32.8542C42.0996 33.004 42.1143 33.2742 42.1143 33.6648V34.8367C42.1143 35.6537 42.1322 36.1713 42.168 36.3894C42.207 36.6042 42.2819 36.811 42.3926 37.0095H41.4746C41.3835 36.8272 41.3249 36.614 41.2988 36.3699ZM41.2256 34.407C40.9066 34.5372 40.4281 34.6479 39.79 34.739C39.4287 34.7911 39.1732 34.8497 39.0234 34.9148C38.8737 34.9799 38.7581 35.0759 38.6768 35.2029C38.5954 35.3266 38.5547 35.4649 38.5547 35.6179C38.5547 35.8523 38.6426 36.0476 38.8184 36.2039C38.9974 36.3601 39.2578 36.4382 39.5996 36.4382C39.9382 36.4382 40.2393 36.365 40.5029 36.2185C40.7666 36.0688 40.9603 35.8653 41.084 35.6082C41.1784 35.4096 41.2256 35.1166 41.2256 34.7292V34.407ZM43.4717 37.0095V31.824H44.2627V32.6101C44.4645 32.2423 44.6501 31.9998 44.8193 31.8826C44.9919 31.7654 45.1807 31.7068 45.3857 31.7068C45.682 31.7068 45.9831 31.8012 46.2891 31.99L45.9863 32.8054C45.7715 32.6785 45.5566 32.615 45.3418 32.615C45.1497 32.615 44.9772 32.6736 44.8242 32.7908C44.6712 32.9047 44.5622 33.0642 44.4971 33.2693C44.3994 33.5818 44.3506 33.9236 44.3506 34.2947V37.0095H43.4717Z" fill="#4678B2"/>
</svg>
