<svg width="30" height="25" viewBox="0 0 30 25" fill="none" xmlns="http://www.w3.org/2000/svg">
<path d="M7.5 12.5C7.49862 11.5801 7.74246 10.6715 8.21381 9.83964C6.27407 10.7195 4.52859 11.8686 3.05252 13.2375C2.96444 13.3336 2.85087 13.4115 2.72079 13.4651C2.59072 13.5187 2.44766 13.5465 2.30255 13.5465C2.15744 13.5465 2.01423 13.5187 1.88416 13.4651C1.75408 13.4115 1.64051 13.3336 1.55243 13.2375C1.35225 13.0279 1.24329 12.7679 1.24329 12.5C1.24329 12.2321 1.35225 11.9721 1.55243 11.7625C1.63368 11.6823 6.95493 6.56987 14.4949 6.26883C14.6599 6.25946 14.825 6.2551 14.995 6.2551H15.065C19.065 6.22593 23.6475 7.57915 28.3875 11.7198C28.6013 11.9205 28.7269 12.1758 28.7437 12.4438C28.7606 12.7118 28.6677 12.9766 28.4801 13.1948C28.3898 13.3009 28.2709 13.3879 28.1331 13.4489C27.9953 13.5098 27.8423 13.5429 27.6863 13.5457C27.5544 13.5444 27.4242 13.5205 27.3038 13.4756C27.1834 13.4306 27.0753 13.3655 26.9862 13.2843C25.4676 11.9189 23.7093 10.7533 21.7712 9.82718C22.2554 10.6744 22.5044 11.6015 22.4998 12.5399C22.4953 13.4783 22.2372 14.4039 21.7447 15.2479C21.2522 16.0918 20.5381 16.8324 19.6552 17.4149C18.7722 17.9973 17.7433 18.4067 16.6446 18.6124C15.5459 18.8182 14.4057 18.8152 13.3086 18.6035C12.2115 18.3919 11.1857 17.9771 10.3073 17.3899C9.42888 16.8028 8.72039 16.0583 8.23441 15.2118C7.74842 14.3652 7.49739 13.4384 7.5 12.5ZM10 12.5C10 13.3241 10.2932 14.1296 10.8426 14.8148C11.392 15.5 12.1729 16.0342 13.0865 16.3496C14.0002 16.6649 15.0056 16.7473 15.9755 16.5866C16.9454 16.4258 17.8362 16.029 18.5355 15.4462C19.2347 14.8635 19.7109 14.1211 19.9039 13.3128C20.0968 12.5045 19.9979 11.6668 19.6194 10.9055C19.241 10.1441 18.6001 9.49334 17.7779 9.0355C16.9556 8.57767 15.9889 8.33335 15 8.33335C13.6739 8.33335 12.4022 8.77239 11.4645 9.5538C10.5269 10.3352 10 11.3949 10 12.5Z" fill="#96B5D1"/>
<path d="M15.0001 15.625C14.2883 15.6249 13.5912 15.4562 12.9902 15.1382C12.3893 14.8203 11.9094 14.3664 11.6065 13.8295C11.3037 13.2927 11.1904 12.695 11.28 12.1065C11.3696 11.5181 11.6584 10.9629 12.1125 10.5061C11.9928 10.7254 11.9681 10.9727 12.0425 11.2055C12.1169 11.4383 12.2857 11.6424 12.5204 11.7831C12.7551 11.9238 13.0411 11.9923 13.3296 11.9771C13.6181 11.9618 13.8914 11.8637 14.1029 11.6994C14.3143 11.5351 14.4509 11.3148 14.4894 11.0761C14.5279 10.8373 14.4658 10.5949 14.3138 10.3899C14.1618 10.185 13.9293 10.0301 13.6558 9.952C13.3823 9.87388 13.0847 9.87727 12.8138 9.96141C13.2938 9.67423 13.8485 9.48569 14.4326 9.41108C15.0167 9.33647 15.6138 9.37795 16.175 9.53213C16.7362 9.68631 17.2457 9.94892 17.662 10.2984C18.0783 10.6478 18.3897 11.0742 18.5707 11.543C18.7516 12.0118 18.797 12.5097 18.7033 12.9959C18.6095 13.4821 18.3793 13.9427 18.0313 14.3407C17.6832 14.7386 17.2271 15.0625 16.7004 15.2857C16.1736 15.5089 15.591 15.6251 15.0001 15.625V15.625Z" fill="#96B5D1"/>
</svg>
