<svg width="37" height="39" viewBox="0 0 37 39" fill="none" xmlns="http://www.w3.org/2000/svg">
<path d="M24.5 23H12.5V19H11.5C10.4391 19 9.42172 18.5786 8.67157 17.8284C7.92143 17.0783 7.5 16.0609 7.5 15V9C7.5 7.93913 7.92143 6.92172 8.67157 6.17157C9.42172 5.42143 10.4391 5 11.5 5H12.5V1H24.5V5H22.5V3H14.5V5H25.5C26.5609 5 27.5783 5.42143 28.3284 6.17157C29.0786 6.92172 29.5 7.93913 29.5 9V15C29.5 16.0609 29.0786 17.0783 28.3284 17.8284C27.5783 18.5786 26.5609 19 25.5 19H24.5V17.135H25.5C26.0304 17.135 26.5391 16.9243 26.9142 16.5492C27.2893 16.1741 27.5 15.6654 27.5 15.135V8.87C27.5 8.33957 27.2893 7.83086 26.9142 7.45579C26.5391 7.08071 26.0304 6.87 25.5 6.87H11.5C10.9696 6.87 10.4609 7.08071 10.0858 7.45579C9.71071 7.83086 9.5 8.33957 9.5 8.87V15.136C9.5 15.6664 9.71071 16.1751 10.0858 16.5502C10.4609 16.9253 10.9696 17.136 11.5 17.136H12.5V15H11.5C11.2348 15 10.9804 14.8946 10.7929 14.7071C10.6054 14.5196 10.5 14.2652 10.5 14C10.5 13.7348 10.6054 13.4804 10.7929 13.2929C10.9804 13.1054 11.2348 13 11.5 13H14.5H25.5C25.7652 13 26.0196 13.1054 26.2071 13.2929C26.3946 13.4804 26.5 13.7348 26.5 14C26.5 14.2652 26.3946 14.5196 26.2071 14.7071C26.0196 14.8946 25.7652 15 25.5 15H24.5V23ZM14.5 21H22.5V15H14.5V21ZM16 19.7C15.8674 19.7 15.7402 19.6473 15.6464 19.5536C15.5527 19.4598 15.5 19.3326 15.5 19.2C15.5 19.0674 15.5527 18.9402 15.6464 18.8464C15.7402 18.7527 15.8674 18.7 16 18.7H21C21.1326 18.7 21.2598 18.7527 21.3536 18.8464C21.4473 18.9402 21.5 19.0674 21.5 19.2C21.5 19.3326 21.4473 19.4598 21.3536 19.5536C21.2598 19.6473 21.1326 19.7 21 19.7H16ZM16 17.2C15.8674 17.2 15.7402 17.1473 15.6464 17.0536C15.5527 16.9598 15.5 16.8326 15.5 16.7C15.5 16.5674 15.5527 16.4402 15.6464 16.3464C15.7402 16.2527 15.8674 16.2 16 16.2H21C21.1326 16.2 21.2598 16.2527 21.3536 16.3464C21.4473 16.4402 21.5 16.5674 21.5 16.7C21.5 16.8326 21.4473 16.9598 21.3536 17.0536C21.2598 17.1473 21.1326 17.2 21 17.2H16ZM23.5 9.5C23.5 9.20333 23.588 8.91332 23.7528 8.66664C23.9176 8.41997 24.1519 8.22771 24.426 8.11418C24.7001 8.00065 25.0017 7.97094 25.2926 8.02882C25.5836 8.0867 25.8509 8.22956 26.0607 8.43934C26.2704 8.64912 26.4133 8.91639 26.4712 9.20736C26.5291 9.49834 26.4993 9.79994 26.3858 10.074C26.2723 10.3481 26.08 10.5824 25.8334 10.7472C25.5867 10.912 25.2967 11 25 11C24.6022 11 24.2206 10.842 23.9393 10.5607C23.658 10.2794 23.5 9.89782 23.5 9.5Z" fill="#4678B2"/>
<path d="M0.932617 37V29.8418H1.87988V37H0.932617ZM3.44238 37V31.8145H4.22852V32.542C4.39128 32.2881 4.60775 32.0846 4.87793 31.9316C5.14811 31.7754 5.45573 31.6973 5.80078 31.6973C6.1849 31.6973 6.49902 31.777 6.74316 31.9365C6.99056 32.096 7.16471 32.319 7.26562 32.6055C7.67578 32 8.20964 31.6973 8.86719 31.6973C9.38151 31.6973 9.77702 31.8405 10.0537 32.127C10.3304 32.4102 10.4688 32.848 10.4688 33.4404V37H9.59473V33.7334C9.59473 33.3818 9.56543 33.1296 9.50684 32.9766C9.4515 32.8203 9.34896 32.695 9.19922 32.6006C9.04948 32.5062 8.8737 32.459 8.67188 32.459C8.30729 32.459 8.00456 32.5811 7.76367 32.8252C7.52279 33.0661 7.40234 33.4535 7.40234 33.9873V37H6.52344V33.6309C6.52344 33.2402 6.45182 32.9473 6.30859 32.752C6.16536 32.5566 5.93099 32.459 5.60547 32.459C5.35807 32.459 5.12858 32.5241 4.91699 32.6543C4.70866 32.7845 4.55729 32.9749 4.46289 33.2256C4.36849 33.4762 4.32129 33.8376 4.32129 34.3096V37H3.44238ZM11.7725 38.9873V31.8145H12.5732V32.4883C12.762 32.2246 12.9753 32.0277 13.2129 31.8975C13.4505 31.764 13.7386 31.6973 14.0771 31.6973C14.5199 31.6973 14.9105 31.8112 15.249 32.0391C15.5876 32.2669 15.8431 32.5892 16.0156 33.0059C16.1882 33.4193 16.2744 33.8734 16.2744 34.3682C16.2744 34.8988 16.1784 35.3773 15.9863 35.8037C15.7975 36.2269 15.5208 36.5524 15.1562 36.7803C14.7949 37.0049 14.4141 37.1172 14.0137 37.1172C13.7207 37.1172 13.457 37.0553 13.2227 36.9316C12.9915 36.8079 12.8011 36.6517 12.6514 36.4629V38.9873H11.7725ZM12.5684 34.4365C12.5684 35.1038 12.7035 35.597 12.9736 35.916C13.2438 36.235 13.571 36.3945 13.9551 36.3945C14.3457 36.3945 14.6794 36.2301 14.9561 35.9014C15.236 35.5693 15.376 35.0566 15.376 34.3633C15.376 33.7025 15.2393 33.2077 14.9658 32.8789C14.6956 32.5501 14.3717 32.3857 13.9941 32.3857C13.6198 32.3857 13.2878 32.5615 12.998 32.9131C12.7116 33.2614 12.5684 33.7692 12.5684 34.4365ZM17.3291 37V31.8145H18.1201V32.6006C18.3219 32.2327 18.5075 31.9902 18.6768 31.873C18.8493 31.7559 19.0381 31.6973 19.2432 31.6973C19.5394 31.6973 19.8405 31.7917 20.1465 31.9805L19.8438 32.7959C19.6289 32.6689 19.4141 32.6055 19.1992 32.6055C19.0072 32.6055 18.8346 32.6641 18.6816 32.7812C18.5286 32.8952 18.4196 33.0547 18.3545 33.2598C18.2568 33.5723 18.208 33.9141 18.208 34.2852V37H17.3291ZM20.6738 30.8525V29.8418H21.5527V30.8525H20.6738ZM20.6738 37V31.8145H21.5527V37H20.6738ZM22.8955 37V31.8145H23.6816V32.542C23.8444 32.2881 24.0609 32.0846 24.3311 31.9316C24.6012 31.7754 24.9089 31.6973 25.2539 31.6973C25.638 31.6973 25.9521 31.777 26.1963 31.9365C26.4437 32.096 26.6178 32.319 26.7188 32.6055C27.1289 32 27.6628 31.6973 28.3203 31.6973C28.8346 31.6973 29.2301 31.8405 29.5068 32.127C29.7835 32.4102 29.9219 32.848 29.9219 33.4404V37H29.0479V33.7334C29.0479 33.3818 29.0186 33.1296 28.96 32.9766C28.9046 32.8203 28.8021 32.695 28.6523 32.6006C28.5026 32.5062 28.3268 32.459 28.125 32.459C27.7604 32.459 27.4577 32.5811 27.2168 32.8252C26.9759 33.0661 26.8555 33.4535 26.8555 33.9873V37H25.9766V33.6309C25.9766 33.2402 25.9049 32.9473 25.7617 32.752C25.6185 32.5566 25.3841 32.459 25.0586 32.459C24.8112 32.459 24.5817 32.5241 24.3701 32.6543C24.1618 32.7845 24.0104 32.9749 23.916 33.2256C23.8216 33.4762 23.7744 33.8376 23.7744 34.3096V37H22.8955ZM31.2305 30.8525V29.8418H32.1094V30.8525H31.2305ZM31.2305 37V31.8145H32.1094V37H31.2305ZM33.4424 37V31.8145H34.2334V32.6006C34.4352 32.2327 34.6208 31.9902 34.79 31.873C34.9626 31.7559 35.1514 31.6973 35.3564 31.6973C35.6527 31.6973 35.9538 31.7917 36.2598 31.9805L35.957 32.7959C35.7422 32.6689 35.5273 32.6055 35.3125 32.6055C35.1204 32.6055 34.9479 32.6641 34.7949 32.7812C34.6419 32.8952 34.5329 33.0547 34.4678 33.2598C34.3701 33.5723 34.3213 33.9141 34.3213 34.2852V37H33.4424Z" fill="#4678B2"/>
</svg>
